<svg width="18" height="17" viewBox="0 0 18 17" fill="none" xmlns="http://www.w3.org/2000/svg">
<path d="M0 1.15168C0 0.846235 0.118527 0.553301 0.329505 0.337319C0.540484 0.121337 0.826631 0 1.125 0H16.875C17.1734 0 17.4595 0.121337 17.6705 0.337319C17.8815 0.553301 18 0.846235 18 1.15168C18 1.45712 17.8815 1.75006 17.6705 1.96604C17.4595 2.18202 17.1734 2.30336 16.875 2.30336H1.125C0.826631 2.30336 0.540484 2.18202 0.329505 1.96604C0.118527 1.75006 0 1.45712 0 1.15168ZM0 14.9718C0 14.6664 0.118527 14.3734 0.329505 14.1575C0.540484 13.9415 0.826631 13.8201 1.125 13.8201H16.875C17.1734 13.8201 17.4595 13.9415 17.6705 14.1575C17.8815 14.3734 18 14.6664 18 14.9718C18 15.2773 17.8815 15.5702 17.6705 15.7862C17.4595 16.0022 17.1734 16.1235 16.875 16.1235H1.125C0.826631 16.1235 0.540484 16.0022 0.329505 15.7862C0.118527 15.5702 0 15.2773 0 14.9718ZM1.125 6.91007C0.826631 6.91007 0.540484 7.03141 0.329505 7.24739C0.118527 7.46338 0 7.75631 0 8.06175C0 8.3672 0.118527 8.66013 0.329505 8.87611C0.540484 9.09209 0.826631 9.21343 1.125 9.21343H10.125C10.4234 9.21343 10.7095 9.09209 10.9205 8.87611C11.1315 8.66013 11.25 8.3672 11.25 8.06175C11.25 7.75631 11.1315 7.46338 10.9205 7.24739C10.7095 7.03141 10.4234 6.91007 10.125 6.91007H1.125Z" fill="black"/>
</svg>
