<svg width="19" height="20" viewBox="0 0 19 20" fill="none" xmlns="http://www.w3.org/2000/svg">
<path d="M14.5409 9.02035C15.0608 13.8103 17.1053 15.2584 17.1053 15.2584H1C1 15.2584 3.68421 13.3576 3.68421 6.70336C3.68421 5.19108 4.24968 3.74029 5.25626 2.67091C6.26374 1.60153 7.63 1 9.05263 1C9.35416 1 9.65389 1.02673 9.94737 1.0802M10.6005 17.9318C10.4434 18.2022 10.2177 18.4266 9.946 18.5826C9.67432 18.7386 9.36623 18.8207 9.05263 18.8207C8.73903 18.8207 8.43094 18.7386 8.15926 18.5826C7.88758 18.4266 7.66186 18.2022 7.50474 17.9318M15.3158 6.3469C16.0277 6.3469 16.7104 6.06523 17.2138 5.56386C17.7172 5.06249 18 4.38249 18 3.67345C18 2.96441 17.7172 2.2844 17.2138 1.78304C16.7104 1.28167 16.0277 1 15.3158 1C14.6039 1 13.9212 1.28167 13.4178 1.78304C12.9144 2.2844 12.6316 2.96441 12.6316 3.67345C12.6316 4.38249 12.9144 5.06249 13.4178 5.56386C13.9212 6.06523 14.6039 6.3469 15.3158 6.3469Z" stroke="black" stroke-width="2" stroke-linecap="round" stroke-linejoin="round"/>
</svg>
